<svg width="226" height="260" viewBox="0 0 226 260" fill="none" xmlns="http://www.w3.org/2000/svg">
<mask id="mask0_896_2514" style="mask-type:alpha" maskUnits="userSpaceOnUse" x="0" y="0" width="225" height="260">
<path d="M18.7164 1H184.877C194.514 1 202.536 10.158 202.466 19.9611C202.376 32.7374 203.353 52.0953 207.409 79.4686C213.947 123.602 220.862 207.042 223.687 242.955C224.37 251.639 217.499 259 208.774 259H16.489C8.02657 259 1.25885 252.011 1.59378 243.565C2.49005 220.964 4.46062 178.381 7.91175 136.693C11.419 94.327 6.69298 44.673 3.49709 18.399C2.38082 9.22184 9.5035 1 18.7164 1Z" fill="#F3CF00" stroke="#7A6003" stroke-width="2"/>
</mask>
<g mask="url(#mask0_896_2514)">
<path d="M18.7164 1H184.877C194.514 1 202.536 10.158 202.466 19.9611C202.376 32.7374 203.353 52.0953 207.409 79.4686C213.947 123.602 220.862 207.042 223.687 242.955C224.37 251.639 217.499 259 208.774 259H16.489C8.02657 259 1.25885 252.011 1.59378 243.565C2.49005 220.964 4.46062 178.381 7.91175 136.693C11.419 94.327 6.69298 44.673 3.49709 18.399C2.38082 9.22184 9.5035 1 18.7164 1Z" fill="#F3CF00" stroke="#7A6003" stroke-width="2"/>
<path d="M93.3547 136.61L83.1291 143.799L93.3547 136.61ZM178.851 83.7288L191.055 86.4322L168.883 76.1872L178.851 83.7288ZM159.049 173.123L146.845 170.42L166.683 183.021L159.049 173.123ZM232.915 116.15L244.18 121.567L225.281 106.252L232.915 116.15ZM111.9 90.9685C102.239 83.0366 102.237 83.0383 102.236 83.0402C102.235 83.041 102.234 83.043 102.232 83.0446C102.23 83.0477 102.227 83.0514 102.223 83.0556C102.216 83.064 102.208 83.0744 102.198 83.0868C102.177 83.1117 102.151 83.1446 102.118 83.1854C102.051 83.2669 101.96 83.3798 101.846 83.5225C101.617 83.8078 101.295 84.2127 100.895 84.7239C100.097 85.745 98.9851 87.1972 97.6861 88.9727C95.108 92.4965 91.7015 97.4197 88.5449 102.853C85.4585 108.165 82.2565 114.562 80.5116 120.942C78.9173 126.772 77.619 135.962 83.1291 143.799L103.58 129.421C104.725 131.049 103.562 131.429 104.626 127.537C105.54 124.195 107.52 119.958 110.161 115.412C112.732 110.987 115.599 106.828 117.863 103.734C118.984 102.201 119.935 100.961 120.595 100.117C120.924 99.6951 121.179 99.3741 121.346 99.1667C121.429 99.0631 121.49 98.9879 121.526 98.9429C121.545 98.9205 121.557 98.9055 121.563 98.8984C121.565 98.8948 121.567 98.8931 121.567 98.8934C121.566 98.8936 121.566 98.8943 121.565 98.8954C121.564 98.896 121.563 98.8972 121.563 98.8975C121.562 98.8988 121.561 98.9003 111.9 90.9685ZM83.1291 143.799C87.6192 150.186 93.7999 154.285 101.123 155.592C108.007 156.82 114.718 155.377 120.466 153.154C131.777 148.781 143.195 139.863 152.776 131.063C162.609 122.031 171.607 112.082 178.086 104.485C181.342 100.665 184.001 97.3938 185.855 95.0655C186.783 93.9006 187.511 92.9693 188.013 92.3209C188.264 91.9966 188.459 91.7429 188.595 91.5658C188.663 91.4773 188.715 91.4078 188.753 91.3583C188.772 91.3336 188.787 91.3138 188.798 91.2991C188.804 91.2918 188.808 91.2857 188.812 91.2809C188.814 91.2785 188.816 91.2758 188.817 91.2746C188.818 91.2723 188.82 91.2703 178.851 83.7288C168.883 76.1872 168.884 76.1858 168.884 76.1848C168.884 76.1849 168.885 76.1842 168.885 76.1843C168.885 76.1846 168.883 76.1862 168.881 76.189C168.877 76.1946 168.869 76.2052 168.857 76.2208C168.833 76.2518 168.795 76.3025 168.742 76.372C168.635 76.5111 168.47 76.7255 168.251 77.0092C167.811 77.5767 167.151 78.4208 166.298 79.4931C164.589 81.6395 162.109 84.6909 159.062 88.2639C152.934 95.4511 144.666 104.566 135.864 112.651C126.811 120.967 118.224 127.218 111.449 129.837C108.155 131.111 106.304 131.121 105.516 130.981C105.168 130.918 104.568 130.826 103.58 129.421L83.1291 143.799ZM166.647 81.0253L146.845 170.42L171.253 175.827L191.055 86.4322L166.647 81.0253ZM166.683 183.021L240.549 126.048L225.281 106.252L151.414 163.226L166.683 183.021ZM221.65 110.733L147.784 264.341L170.314 275.175L244.18 121.567L221.65 110.733Z" fill="#FBF8DF"/>
<path d="M4.40039 29.5884C4.40039 29.5884 46.5503 23.0236 82.0388 26.4408C147.418 32.7361 203.054 31.4771 203.054 31.4771" stroke="#7A6002"/>
<path d="M4.40039 26.1673C4.40039 26.1673 46.5503 19.6024 82.0388 23.0196C147.418 29.315 203.054 28.056 203.054 28.056" stroke="#7A6002"/>
<path d="M42.876 143.276H177.876C185.587 143.276 192.042 149.123 192.803 156.796L198.176 210.995C199.131 220.626 190.808 228.872 181.065 228.333C164.419 227.412 138.767 227.009 108.97 230.046C80.1638 232.983 57.8996 234.021 43.6882 234.361C34.7812 234.574 27.9171 226.678 28.5003 217.649C29.0315 209.423 29.3814 198.963 28.975 187.567C28.5825 176.561 28.1356 166.863 27.7474 159.29C27.3026 150.612 34.2005 143.276 42.876 143.276Z" fill="#E7E7E7" stroke="#7E6300" stroke-width="2"/>
<path d="M45.2637 156.755H105.614" stroke="#8A8985" stroke-width="6" stroke-linecap="round"/>
<path d="M127.615 193.269H187.966" stroke="#8A8985" stroke-width="6" stroke-linecap="round"/>
<path d="M45.2637 169.346H105.614" stroke="#8A8985" stroke-width="6" stroke-linecap="round"/>
<path d="M127.615 205.86H187.966" stroke="#8A8985" stroke-width="6" stroke-linecap="round"/>
<path d="M45.2637 181.308H105.614" stroke="#8A8985" stroke-width="6" stroke-linecap="round"/>
<path d="M127.615 217.821H187.966" stroke="#8A8985" stroke-width="6" stroke-linecap="round"/>
<rect x="165.336" y="149.201" width="15.0876" height="20.1453" rx="7.54381" fill="white"/>
</g>
</svg>
