<svg width="48" height="48" viewBox="0 0 48 48" fill="none" xmlns="http://www.w3.org/2000/svg">
<path d="M36 16.5H31.5V19.5H36V16.5Z" fill="#212121"/>
<path d="M12 22.5H16.5V25.5H12V22.5Z" fill="#212121"/>
<path d="M30 31.5V28.5H18V31.5H30Z" fill="#212121"/>
<path d="M22.5 22.5H18V25.5H22.5V22.5Z" fill="#212121"/>
<path d="M28.5 22.5H24V25.5H28.5V22.5Z" fill="#212121"/>
<path d="M36 22.5H30V25.5H36V22.5Z" fill="#212121"/>
<path d="M24 16.5H19.5V19.5H24V16.5Z" fill="#212121"/>
<path d="M18 16.5H12V19.5H18V16.5Z" fill="#212121"/>
<path d="M30 16.5H25.5V19.5H30V16.5Z" fill="#212121"/>
<path fill-rule="evenodd" clip-rule="evenodd" d="M29.25 9C34.1602 9 36.6152 9 38.4188 10.1052C39.4279 10.7236 40.2764 11.5721 40.8948 12.5812C42 14.3848 42 16.8398 42 21.75V26.25C42 31.1602 42 33.6152 40.8948 35.4188C40.2764 36.4279 39.4279 37.2764 38.4188 37.8948C36.6152 39 34.1602 39 29.25 39H18.75C13.8398 39 11.3848 39 9.58118 37.8948C8.57208 37.2764 7.72357 36.4279 7.10522 35.4188C6 33.6152 6 31.1602 6 26.25V21.75C6 16.8398 6 14.3848 7.10522 12.5812C7.72357 11.5721 8.57208 10.7236 9.58118 10.1052C11.3848 9 13.8398 9 18.75 9H29.25ZM39 21.75V26.25C39 28.7631 38.9969 30.4374 38.8753 31.7153C38.7581 32.9487 38.5521 33.5001 38.3368 33.8513C37.9658 34.4568 37.4568 34.9658 36.8513 35.3368C36.5001 35.5521 35.9487 35.7581 34.7153 35.8753C33.4374 35.9969 31.7631 36 29.25 36H18.75C16.2369 36 14.5626 35.9969 13.2847 35.8753C12.0513 35.7581 11.4999 35.5521 11.1487 35.3368C10.5432 34.9658 10.0342 34.4568 9.66321 33.8513C9.44788 33.5001 9.24188 32.9487 9.12469 31.7153C9.00311 30.4374 9 28.7631 9 26.25V21.75C9 19.2369 9.00311 17.5626 9.12469 16.2847C9.24188 15.0513 9.44788 14.4999 9.66321 14.1487C10.0342 13.5432 10.5432 13.0342 11.1487 12.6632C11.4999 12.4479 12.0513 12.2419 13.2847 12.1247C14.5626 12.0031 16.2369 12 18.75 12H29.25C31.7631 12 33.4374 12.0031 34.7153 12.1247C35.9487 12.2419 36.5001 12.4479 36.8513 12.6632C37.4568 13.0342 37.9658 13.5432 38.3368 14.1487C38.5521 14.4999 38.7581 15.0513 38.8753 16.2847C38.9969 17.5626 39 19.2369 39 21.75Z" fill="#212121"/>
</svg>
