<svg width="65" height="64" viewBox="0 0 65 64" fill="none" xmlns="http://www.w3.org/2000/svg">
<path d="M23.4282 21.2061L37.2049 28.8597C38.0733 29.3422 38.2404 29.4502 38.356 29.5629C38.5581 29.7601 38.7038 30.0077 38.778 30.2802C38.8204 30.4359 38.8337 30.6344 38.8337 31.6279V44.3142L34.8068 46.5513C34.059 46.9668 33.685 47.1745 33.2943 47.2758C32.7734 47.4107 32.2266 47.4107 31.7057 47.2758C31.315 47.1745 30.941 46.9668 30.1932 46.5513L20.6932 41.2735C19.9034 40.8348 19.5086 40.6154 19.2054 40.3196C18.8011 39.9253 18.5097 39.43 18.3613 38.8851C18.25 38.4765 18.25 38.0247 18.25 37.1213V26.8778C18.25 25.9743 18.25 25.5226 18.3613 25.1139C18.5097 24.5691 18.8011 24.0738 19.2054 23.6794C19.5086 23.3837 19.9034 23.1643 20.6932 22.7255L23.4282 21.2061Z" fill="white"/>
<path d="M26.6885 19.3948L30.1932 17.4478C30.941 17.0323 31.315 16.8246 31.7057 16.7233C32.2266 16.5883 32.7734 16.5883 33.2943 16.7233C33.685 16.8246 34.059 17.0323 34.8068 17.4478L44.3068 22.7255C45.0966 23.1643 45.4914 23.3837 45.7946 23.6794C46.1989 24.0738 46.4903 24.5691 46.6387 25.1139C46.75 25.5226 46.75 25.9743 46.75 26.8778V37.1213C46.75 38.0247 46.75 38.4765 46.6387 38.8851C46.4903 39.43 46.1989 39.9253 45.7946 40.3196C45.4914 40.6154 45.0966 40.8348 44.3068 41.2735L42.0003 42.5549L42.0005 31.4717C42.0012 30.7236 42.0019 30.0668 41.8334 29.448C41.6108 28.6306 41.1736 27.8877 40.5673 27.2962C40.1082 26.8483 39.5337 26.5299 38.8794 26.1673L26.6885 19.3948Z" fill="white"/>
</svg>
