<svg width="110" height="34" viewBox="0 0 110 34" fill="none" xmlns="http://www.w3.org/2000/svg">
<path d="M14.0949 28.38C12.0429 28.38 10.1556 28.0633 8.43291 27.43C6.73557 26.7713 5.26624 25.8467 4.02491 24.656C2.80891 23.44 1.85891 21.9707 1.17491 20.248C0.51624 18.5253 0.186906 16.5747 0.186906 14.396C0.186906 12.2173 0.51624 10.2667 1.17491 8.544C1.83357 6.796 2.75824 5.32667 3.94891 4.136C5.16491 2.92 6.60891 1.99533 8.28091 1.362C9.95291 0.728666 11.8149 0.412 13.8669 0.412C15.7162 0.412 17.2869 0.601999 18.5789 0.981999C19.8709 1.33667 20.8842 1.72933 21.6189 2.16L20.9349 6.302C20.0482 5.77 19.0349 5.33933 17.8949 5.01C16.7549 4.65533 15.4756 4.478 14.0569 4.478C11.2702 4.478 9.10424 5.314 7.55891 6.986C6.01357 8.63267 5.24091 11.1027 5.24091 14.396C5.24091 17.7147 6.02624 20.1973 7.59691 21.844C9.19291 23.4653 11.4476 24.276 14.3609 24.276C15.5769 24.276 16.6789 24.124 17.6669 23.82C18.6549 23.4907 19.5922 23.0473 20.4789 22.49L21.7329 26.29C21.0236 26.7967 20.0229 27.278 18.7309 27.734C17.4642 28.1647 15.9189 28.38 14.0949 28.38ZM32.272 20.058H30.562V28H25.964V8.278H30.562V16.372H32.386L38.542 8.278H43.33L35.996 17.74L43.71 28H38.238L32.272 20.058ZM52.3348 22.262C51.4481 26.5687 49.1048 28.494 45.3048 28.038L44.7348 24.01C45.6974 24.086 46.4574 23.9213 47.0148 23.516C47.5974 23.0853 48.0154 22.3127 48.2688 21.198C48.5728 19.83 48.7628 18.082 48.8388 15.954C48.9401 13.826 48.9908 11.2673 48.9908 8.278H63.1268V28H58.5288V12.002H53.1708C53.1201 14.1047 53.0441 16.0173 52.9428 17.74C52.8414 19.4373 52.6388 20.9447 52.3348 22.262ZM74.5395 24.846C75.1475 24.846 75.6922 24.7573 76.1735 24.58C76.6549 24.4027 77.0855 24.1873 77.4655 23.934C77.8709 23.6553 78.2129 23.3513 78.4915 23.022C78.7955 22.6927 79.0489 22.3633 79.2515 22.034V19.032H77.0095C75.1095 19.032 73.7542 19.3107 72.9435 19.868C72.1329 20.4253 71.7275 21.1853 71.7275 22.148C71.7275 22.984 71.9682 23.6427 72.4495 24.124C72.9309 24.6053 73.6275 24.846 74.5395 24.846ZM79.7455 28C79.6949 27.6707 79.6315 27.24 79.5555 26.708C79.5049 26.176 79.4669 25.6693 79.4415 25.188C79.1629 25.5933 78.8335 25.986 78.4535 26.366C78.0735 26.746 77.6302 27.088 77.1235 27.392C76.6169 27.696 76.0342 27.9367 75.3755 28.114C74.7422 28.2913 74.0329 28.38 73.2475 28.38C72.4115 28.38 71.6135 28.2533 70.8535 28C70.1189 27.772 69.4729 27.4173 68.9155 26.936C68.3582 26.4547 67.9149 25.8593 67.5855 25.15C67.2815 24.4407 67.1295 23.6047 67.1295 22.642C67.1295 20.514 67.9149 18.8927 69.4855 17.778C71.0562 16.638 73.4882 16.068 76.7815 16.068H79.2515V15.08C79.2515 13.788 78.9095 12.9013 78.2255 12.42C77.5415 11.9133 76.5029 11.66 75.1095 11.66C73.8935 11.66 72.7789 11.8247 71.7655 12.154C70.7775 12.4833 69.8782 12.8633 69.0675 13.294L68.1175 9.646C68.9282 9.21533 69.9795 8.82267 71.2715 8.468C72.5889 8.088 74.0455 7.898 75.6415 7.898C78.2509 7.898 80.2775 8.44267 81.7215 9.532C83.1655 10.596 83.8875 12.3187 83.8875 14.7V24.808C83.8875 25.036 83.8875 25.302 83.8875 25.606C83.9129 25.8847 83.9255 26.176 83.9255 26.48C83.9509 26.784 83.9635 27.0753 83.9635 27.354C83.9889 27.6073 84.0142 27.8227 84.0395 28H79.7455ZM101.289 12.002H95.4375C95.3108 15.0673 95.0955 17.588 94.7915 19.564C94.4875 21.5147 94.0061 23.0853 93.3475 24.276H101.289V12.002ZM104.823 28H91.1055L90.8015 33.624H86.7355V24.276H88.5215C89.0788 23.7693 89.5221 23.0727 89.8515 22.186C90.2061 21.2993 90.4848 20.1973 90.6875 18.88C90.9155 17.5627 91.0801 16.03 91.1815 14.282C91.2828 12.534 91.3841 10.5327 91.4855 8.278H105.925V24.276H109.193V33.624H105.165L104.823 28Z" fill="#21201F"/>
</svg>
