<svg width="64" height="64" viewBox="0 0 64 64" fill="none" xmlns="http://www.w3.org/2000/svg">
<path opacity="0.3" fill-rule="evenodd" clip-rule="evenodd" d="M46.2497 46.25C46.2497 30.4167 43.083 17.75 43.083 17.75C41.3642 17.75 40.5491 18.1877 39.776 18.6028C39.0788 18.9773 38.4157 19.3333 37.1546 19.3333C35.8496 19.3333 35.0873 18.952 34.3109 18.5636C33.5052 18.1606 32.6844 17.75 31.2263 17.75C29.8192 17.75 29.1042 18.1323 28.3769 18.5212C27.624 18.9238 26.858 19.3333 25.2979 19.3333C23.7889 19.3333 23.1128 18.9501 22.4257 18.5608C21.7162 18.1587 20.9951 17.75 19.333 17.75L22.4997 46.25H46.2497ZM31.208 24.0833C33.3941 24.0833 35.1663 23.3745 35.1663 22.5C35.1663 21.6255 33.3941 20.9167 31.208 20.9167C29.0219 20.9167 27.2497 21.6255 27.2497 22.5C27.2497 23.3745 29.0219 24.0833 31.208 24.0833Z" fill="white"/>
<path fill-rule="evenodd" clip-rule="evenodd" d="M41.5 46.25C41.5 32 43.0833 17.75 43.0833 17.75C41.3645 17.75 40.5494 18.1877 39.7764 18.6028C39.0791 18.9773 38.4161 19.3333 37.155 19.3333C35.8499 19.3333 35.0876 18.952 34.3112 18.5636C33.5056 18.1606 32.6848 17.75 31.2266 17.75C29.8196 17.75 29.1045 18.1323 28.3772 18.5212C27.6244 18.9238 26.8584 19.3333 25.2982 19.3333C23.7892 19.3333 23.1131 18.9501 22.4261 18.5608C21.7166 18.1587 20.9954 17.75 19.3333 17.75C19.3333 17.75 17.75 31.2083 17.75 46.25H41.5ZM31.2083 24.0833C33.3945 24.0833 35.1667 23.3745 35.1667 22.5C35.1667 21.6255 33.3945 20.9167 31.2083 20.9167C29.0222 20.9167 27.25 21.6255 27.25 22.5C27.25 23.3745 29.0222 24.0833 31.2083 24.0833Z" fill="white"/>
</svg>
