<svg width="24" height="23" viewBox="0 0 24 23" fill="none" xmlns="http://www.w3.org/2000/svg">
<path fill-rule="evenodd" clip-rule="evenodd" d="M19.6983 0.53604L23.4328 0.121094L23.0179 3.85561C22.6342 7.30856 21.0868 10.5281 18.6302 12.9847L16.0566 15.5713C16.9729 16.4876 17.1151 17.9233 16.3963 19.0015L14.2351 22.2433C13.71 23.0309 12.5957 23.1412 11.9263 22.4719L10.4286 20.9742L10.8529 18.0043L5.54958 12.701L2.57973 13.1253L1.08199 11.6276C0.412664 10.9582 0.523009 9.84388 1.3106 9.31882L4.55241 7.15761C5.63061 6.43881 7.06628 6.58097 7.98257 7.49726L10.5692 4.92373C13.0258 2.4671 16.2453 0.919701 19.6983 0.53604ZM21.2289 3.65684L21.3953 2.15856L19.8971 2.32503C16.8503 2.66356 14.0096 4.02891 11.8419 6.19652L9.26841 8.77005C8.56186 9.4766 7.41632 9.4766 6.70978 8.77006C6.4002 8.46048 5.91515 8.41245 5.55087 8.6553L2.61354 10.6135L3.21612 11.2161L6.18597 10.7918L12.7621 17.3679L12.3378 20.3378L12.9404 20.9404L14.8986 18.003C15.1415 17.6387 15.0934 17.1537 14.7838 16.8441C14.0773 16.1376 14.0773 14.992 14.7838 14.2855L17.3574 11.712C19.525 9.54434 20.8903 6.70355 21.2289 3.65684Z" fill="white"/>
<path d="M5.30434 14.8908L3.21826 20.3711L8.69869 18.2847L5.30434 14.8908Z" fill="white"/>
</svg>
